<?xml version="1.0" ?><svg data-name="002" id="_002" viewBox="0 0 128 128" xmlns="http://www.w3.org/2000/svg"><defs><style>.cls-1{opacity:0.3;}.cls-2{fill:#c9c1f5;}.cls-3{fill:#96d7ff;}.cls-4{opacity:0.5;}.cls-5{fill:#fff;}.cls-6{fill:#6d6daa;}.cls-7{fill:#c7e9ff;}.cls-8{fill:#97c1ff;}.cls-9{fill:#fff27d;}.cls-10{opacity:0.7;}.cls-11{fill:#b1f1a8;}.cls-12{fill:#1c64ba;}.cls-13{fill:#eef6ff;}</style></defs><title/><g class="cls-1"><path class="cls-2" d="M5.31,87.89A30,30,0,0,0,31.63,110a19.69,19.69,0,0,1,11.63,5.21,37,37,0,0,0,62-22.89,21,21,0,0,1,9.18-14.87c13.19-9,18-28.79,3-45.06a16.6,16.6,0,0,0-6.89-4.12,20.58,20.58,0,0,1-11.24-9.61,28.49,28.49,0,0,0-43.82-7.49A20.06,20.06,0,0,1,39.33,16,29,29,0,0,0,7.56,53.86a20.08,20.08,0,0,1-.82,14.33A29.83,29.83,0,0,0,5.31,87.89Z"/><circle class="cls-3" cx="111" cy="16" r="7"/><g class="cls-4"><path class="cls-5" d="M111,13.2a7,7,0,0,1,6.66,4.95A6.91,6.91,0,0,0,118,16a7,7,0,0,0-14,0,6.91,6.91,0,0,0,.34,2.15A7,7,0,0,1,111,13.2Z"/></g><path class="cls-6" d="M111,24a8,8,0,1,1,8-8A8,8,0,0,1,111,24Zm0-14a6,6,0,1,0,6,6A6,6,0,0,0,111,10Z"/><circle class="cls-3" cx="16.5" cy="105.5" r="6.5"/><g class="cls-4"><path class="cls-5" d="M16.5,102.9a6.48,6.48,0,0,1,6.18,4.59,6.42,6.42,0,0,0,.32-2,6.5,6.5,0,0,0-13,0,6.42,6.42,0,0,0,.32,2A6.48,6.48,0,0,1,16.5,102.9Z"/></g><path class="cls-6" d="M16.5,113a7.5,7.5,0,1,1,7.5-7.5A7.51,7.51,0,0,1,16.5,113Zm0-13a5.5,5.5,0,1,0,5.5,5.5A5.51,5.51,0,0,0,16.5,100Z"/><polygon class="cls-7" points="29.49 26.98 26.19 30.28 24.36 25.99 25.2 25.15 29.49 26.98"/><path class="cls-7" d="M26.36,23.91,23,27.17a1,1,0,0,1-1.39,0l-2.88-2.88a1,1,0,0,1,0-1.41L22.1,19.6a1,1,0,0,1,1.39,0l2.88,2.88A1,1,0,0,1,26.36,23.91Z"/><rect class="cls-2" height="15.56" transform="translate(-2.21 26.06) rotate(-45)" width="6.06" x="27.32" y="7.92"/><rect class="cls-2" height="15.56" transform="translate(-17.87 19.58) rotate(-45)" width="6.06" x="11.67" y="23.58"/><path class="cls-6" d="M22.31,28.45a2,2,0,0,1-1.41-.58L18,25a2,2,0,0,1,0-2.84l3.36-3.27a2,2,0,0,1,2.8,0l2.88,2.88a2,2,0,0,1,0,2.84h0L23.7,27.89A2,2,0,0,1,22.31,28.45Zm.47-8.14-3.35,3.27,2.88,2.87,3.35-3.26Zm2.88,2.87.7.72-.7-.72Z"/><path class="cls-6" d="M33.71,24.35a1,1,0,0,1-.71-.29l-11-11a1,1,0,0,1,0-1.41l4.29-4.29a1,1,0,0,1,1.41,0l11,11a1,1,0,0,1,0,1.41l-4.29,4.29A1,1,0,0,1,33.71,24.35Zm-9.59-12,9.59,9.59,2.87-2.87L27,9.47Z"/><path class="cls-6" d="M26.19,31.28l-.19,0a1,1,0,0,1-.73-.59l-1.84-4.29a1,1,0,0,1,.21-1.1l.84-.84a1,1,0,0,1,1.1-.21l4.29,1.84a1,1,0,0,1,.31,1.63L26.9,31A1,1,0,0,1,26.19,31.28Zm-.57-4.86.9,2.11,1.21-1.21Z"/><path class="cls-6" d="M12.56,34.5a1,1,0,0,1-.71-1.71l7.69-7.69A1,1,0,0,1,21,26.51l-7.69,7.69A1,1,0,0,1,12.56,34.5Z"/><path class="cls-6" d="M25,22.1a1,1,0,0,1-.71-1.71l7.07-7.1a1,1,0,0,1,1.42,1.41l-7.07,7.1A1,1,0,0,1,25,22.1Z"/><path class="cls-6" d="M18.06,40a1,1,0,0,1-.71-.29l-11-11a1,1,0,0,1,0-1.41L10.64,23a1,1,0,0,1,1.41,0l11,11a1,1,0,0,1,0,1.41l-4.29,4.29A1,1,0,0,1,18.06,40ZM8.47,28l9.59,9.59,2.87-2.87-9.59-9.59Z"/><path class="cls-6" d="M30.71,32.71a1,1,0,0,1-.71-.29l-.71-.71a1,1,0,0,1,1.41-1.41l.71.71a1,1,0,0,1-.71,1.71Z"/><path class="cls-6" d="M34,36a1,1,0,0,1-.71-.29L32.59,35A1,1,0,0,1,34,33.59l.71.71A1,1,0,0,1,34,36Z"/><path class="cls-6" d="M100,115a1,1,0,0,1-.64-1.77l12-10a1,1,0,1,1,1.28,1.54l-12,10A1,1,0,0,1,100,115Z"/><path class="cls-6" d="M105,119a1,1,0,0,1-.8-1.6l9-12a1,1,0,0,1,1.6,1.2l-9,12A1,1,0,0,1,105,119Z"/><circle class="cls-7" cx="114" cy="104" r="5"/><path class="cls-6" d="M114,110a6,6,0,1,1,6-6A6,6,0,0,1,114,110Zm0-10a4,4,0,1,0,4,4A4,4,0,0,0,114,100Z"/><path class="cls-6" d="M93,113a1,1,0,0,1-.55-1.83L110,99.56a1,1,0,1,1,1.1,1.67l-17.54,11.6A1,1,0,0,1,93,113Z"/><path class="cls-6" d="M107,125a1,1,0,0,1-.84-1.54L116.73,107a1,1,0,1,1,1.68,1.08l-10.58,16.51A1,1,0,0,1,107,125Z"/></g><path class="cls-2" d="M68.85,4.77a5.55,5.55,0,0,0,3.69,3.69q2.77.92,0,1.85A5.55,5.55,0,0,0,68.85,14q-.92,2.77-1.85,0a5.55,5.55,0,0,0-3.69-3.69q-2.77-.92,0-1.85A5.55,5.55,0,0,0,67,4.77Q67.92,2,68.85,4.77Z"/><path class="cls-2" d="M114.62,42.92a3.7,3.7,0,0,0,2.46,2.46q1.85.62,0,1.23a3.7,3.7,0,0,0-2.46,2.46q-.62,1.85-1.23,0a3.7,3.7,0,0,0-2.46-2.46q-1.85-.62,0-1.23a3.7,3.7,0,0,0,2.46-2.46Q114,41.08,114.62,42.92Z"/><path class="cls-3" d="M118.62,76.92a3.7,3.7,0,0,0,2.46,2.46q1.85.62,0,1.23a3.7,3.7,0,0,0-2.46,2.46q-.62,1.85-1.23,0a3.7,3.7,0,0,0-2.46-2.46q-1.85-.62,0-1.23a3.7,3.7,0,0,0,2.46-2.46Q118,75.08,118.62,76.92Z"/><path class="cls-2" d="M84.62,116.92a3.7,3.7,0,0,0,2.46,2.46q1.85.62,0,1.23a3.7,3.7,0,0,0-2.46,2.46q-.62,1.85-1.23,0a3.7,3.7,0,0,0-2.46-2.46q-1.85-.62,0-1.23a3.7,3.7,0,0,0,2.46-2.46Q84,115.08,84.62,116.92Z"/><path class="cls-3" d="M32.77,115.15a4.62,4.62,0,0,0,3.08,3.08q2.31.77,0,1.54a4.62,4.62,0,0,0-3.08,3.08q-.77,2.31-1.54,0a4.62,4.62,0,0,0-3.08-3.08q-2.31-.77,0-1.54a4.62,4.62,0,0,0,3.08-3.08Q32,112.85,32.77,115.15Z"/><path class="cls-2" d="M13.62,45.92a3.7,3.7,0,0,0,2.46,2.46q1.85.62,0,1.23a3.7,3.7,0,0,0-2.46,2.46q-.62,1.85-1.23,0a3.7,3.7,0,0,0-2.46-2.46q-1.85-.62,0-1.23a3.7,3.7,0,0,0,2.46-2.46Q13,44.08,13.62,45.92Z"/><path class="cls-2" d="M9.62,73.92a3.7,3.7,0,0,0,2.46,2.46q1.85.62,0,1.23a3.7,3.7,0,0,0-2.46,2.46q-.62,1.85-1.23,0a3.7,3.7,0,0,0-2.46-2.46q-1.85-.62,0-1.23a3.7,3.7,0,0,0,2.46-2.46Q9,72.08,9.62,73.92Z"/><circle class="cls-8" cx="62" cy="70" r="42"/><path class="cls-9" d="M101,54.52l-1.36.57h0a1.31,1.31,0,0,1,0,.25c-.14,2.87-5,2.9-7.28,1.85a2.59,2.59,0,0,0-3.24.55c-1.62,2-2.65-.64-5.74-1a.86.86,0,0,1-.7-1.06c.3-2.72-5.22-.23-9.63-.37-2-.06-3.33.58-3.93,1.65-2,3.53-7.45,4.73-5.65,7.81.59,1,.13,1.93-.41,2.85-1.52,2.58.43,2.23,2.55,5.87a2.55,2.55,0,0,0,2.1,1.3A36.85,36.85,0,0,0,74,74.48c1.66-.27,5.17.49,5.46.5,6,.23,4.14,13.83,4.77,15.18,2,4.23,3.37,10.17,5.14,10.23a9.05,9.05,0,0,0,1.77-.13,42,42,0,0,0,10-45.7v0S101,54.52,101,54.52Z"/><g class="cls-10"><path class="cls-5" d="M84.73,57.71a.86.86,0,0,0,.7,1.06c3.09.33,4.12,2.93,5.74,1a2.59,2.59,0,0,1,3.24-.55c2.23,1,7.13,1,7.28-1.85a1.31,1.31,0,0,0,0-.25h0l.26-.11c-.27-.82-.55-1.62-.86-2.42v0s0,0,0,0l-1.36.57a1.31,1.31,0,0,1,0,.25c-.14,2.87-5,2.9-7.28,1.85a2.59,2.59,0,0,0-3.24.55c-1.39,1.68-2.35,0-4.54-.71A1.19,1.19,0,0,1,84.73,57.71Z"/><path class="cls-5" d="M86.2,92.16c-.59-1.26.94-13.07-3.61-14.93,2.05,4,1.14,11.92,1.61,12.93,2,4.23,3.37,10.17,5.14,10.23h.19C88.49,98.27,87.47,94.87,86.2,92.16Z"/><path class="cls-5" d="M65.11,69.65c.54-.92,1-1.83.41-2.85-1.8-3.08,3.64-4.28,5.65-7.81.61-1.07,1.95-1.71,3.93-1.65,2.72.08,5.85-.83,7.79-.9a1.11,1.11,0,0,1-.16-.73c.3-2.72-5.22-.23-9.63-.37-2-.06-3.33.58-3.93,1.65-2,3.53-7.45,4.73-5.65,7.81.59,1,.13,1.93-.41,2.85-1.52,2.58.43,2.23,2.55,5.87a2.68,2.68,0,0,0,1.5,1.2C65.25,71.93,63.71,72,65.11,69.65Z"/></g><path class="cls-11" d="M65.66,73.52a2.55,2.55,0,0,0,2.1,1.3A36.85,36.85,0,0,0,74,74.48c1.66-.27,5.17.49,5.46.5,3.45.13,4.29,4.74,4.51,8.87,0,0,6.09,1.6,9.79.92S102,82.7,102,82.7a42.1,42.1,0,0,0,1.15-20.89s.29,4.93-7.79,5.29S83,68.2,77.57,67.1s-13.91,3.79-13.91,3.79A13.53,13.53,0,0,1,65.66,73.52Z"/><path class="cls-11" d="M70.61,52.49a3.4,3.4,0,0,0,4.21-1.14c.94-1.45,6-5.59,6.48-1.07a2.25,2.25,0,0,1,2.42-.44c.92.45,1.61-.25.8-.9-.43-.35-1.13-.7-.73-1.21s1,0,1.54.18c2.5.86,5.25,4.24,6.4,3.92a1.35,1.35,0,0,1,1.55.53c2.14,3.25,6.15.91,6.37,2.73L101,54.5A42.15,42.15,0,0,0,85.4,35.12c-1.61.93-3.23,2.08-4.7,3.06a1.49,1.49,0,0,0-.64,1.87c.32.82,3.2.95-5.11,3.84-.62.22-1.16.25-.7,1C75.44,46.75,74,47,72.19,47c-.83,0-2,1.33-2.12,2.15C69.87,50.26,68.69,51.58,70.61,52.49Z"/><g class="cls-4"><path class="cls-5" d="M82.7,40.18c1.47-1,3.1-2.13,4.7-3.06l.38-.26c-.78-.61-1.57-1.19-2.38-1.74-1.61.93-3.23,2.08-4.7,3.06a1.49,1.49,0,0,0-.64,1.87c.32.82,3.2.95-5.11,3.84-.62.22-1.16.25-.7,1C75.44,46.75,74,47,72.19,47c-.83,0-2,1.33-2.12,2.15-.2,1.1-1.39,2.42.54,3.33a3.23,3.23,0,0,0,1,.27c.11-.54.41-1.09.5-1.6.15-.83,1.29-2.14,2.12-2.15,1.79,0,3.25-.25,2.06-2.14-.46-.73.08-.76.7-1,8.31-2.89,5.43-3,5.11-3.84A1.49,1.49,0,0,1,82.7,40.18Z"/></g><path class="cls-11" d="M32.29,40.31c-.72.72-1.4,1.47-2.07,2.24l-.33.38q-1,1.14-1.84,2.34l-.26.37a42,42,0,0,0-3.28,5.42l-.11.22q-.72,1.45-1.33,3l-.05.14a41.81,41.81,0,0,0-2.62,9.94h0c-.16,1.16-.28,2.33-.34,3.52,2.1.38,4.31.9,5.32,3.31.45,1.07,1.75,2.14,2.86,1.65,1.44-.64,1.39.2,1.64.9,1.35,3.82-3.06,2.19-1.17,8.48.87,2.9,2.31,5.47,5.45,6.74a2.08,2.08,0,0,1,1.36,1.7c.25,2.27.92,4.47.54,6.83a11.44,11.44,0,0,0,.39,5.87q1.26,1,2.6,1.84l.05,0,.22.14c.88.57,1.77,1.11,2.69,1.6h0c.22-.32.71-.87.5-1.2-1-1.6.7-2.4,1.39-2.68,1.37-.56,3.8-4.27,4.54-5.73s.2-3.56,2.4-4.08c5-1.19,1.63-5.57,4.56-8.58.9-.92,1.32-2.54,0-3.25S52.9,79.48,51.13,80a.72.72,0,0,1-.93-.44c-.47-1-1.15-1-2-.4A1.36,1.36,0,0,1,46.43,79c-.42-.31-.37-.68-.24-1.16.5-1.93-.47-3.33-2.51-3.76C40.58,73.46,38,71.31,37,71.16c-.37-.06-7.3-1.77-7.66-1.73-.74-2.29-3.61-3.24-4.42-5.1,1.86-1.18,5.39-4.28,5.51-6.71.15-3.25,4.09-4.91,7.08-6.34,1.84-.88,3.22-3,5.8-2.06.21.08.7-.31.91-.58s-.28-.49-.36-.73c-.41-1.35-1.73-.55-2.78-1,2.08-1.64,4.35-1.48,7.1-2.18.48-.12,1.41-.56.59-1.09-1.06-.69-1-1.69-1.25-2.59-.75-2.7-1.85.85-3.14-.86-1.18-1.55-3-1.72-3.82-.08s-2.67,2.61-3.25,4.41c-.41,1.28-2,.66-1.73-.22.76-2.28-2.47-2.28-3.29-4h0Z"/><g class="cls-4"><path class="cls-5" d="M42.41,42.18c1.3,1.71,2.4-1.84,3.14.86a5.37,5.37,0,0,0,.7,2.08c.63-.11,1.28-.23,2-.4.48-.12,1.41-.56.59-1.09-1.06-.69-1-1.69-1.25-2.59-.75-2.7-1.85.85-3.14-.86-1.18-1.55-3-1.72-3.82-.08A5.61,5.61,0,0,1,40,41,2.59,2.59,0,0,1,42.41,42.18Z"/><path class="cls-5" d="M55.39,81.42c-1.25-.66-2.49-1.94-4.26-1.37a.72.72,0,0,1-.93-.44c-.47-1-1.15-1-2-.4A1.36,1.36,0,0,1,46.43,79c-.42-.31-.37-.68-.24-1.16.5-1.93-.47-3.33-2.51-3.76C40.58,73.46,38,71.31,37,71.16c-.37-.06-7.3-1.77-7.66-1.73-.7-2.16-3.26-3.13-4.23-4.79-.48.43-1,.82-1.4,1.14a1,1,0,0,0-.17,1.47c1.16,1.32,3.2,2.29,3.81,4.17.37,0,7.29,1.68,7.66,1.73,1,.14,3.55,2.3,6.64,2.93,2,.42,3,1.82,2.51,3.76-.12.48-.17.85.24,1.16a1.36,1.36,0,0,0,1.77.19c.85-.63,1.54-.59,2,.4a.72.72,0,0,0,.93.44c1.76-.57,3,.71,4.26,1.37s.91,2.33,0,3.25c-1.9,1.95-1.16,4.47-1.77,6.33,3.82-1.46,1-5.5,3.77-8.33C56.3,83.75,56.72,82.13,55.39,81.42Z"/><path class="cls-5" d="M48.84,95.25c-2.2.53-1.69,2.69-2.4,4.08A26.84,26.84,0,0,1,44.07,103c1.39-.77,3.65-4.24,4.37-5.64A10.58,10.58,0,0,0,49,95.19Z"/><path class="cls-5" d="M33.6,46.29c-.29.87,1.32,1.5,1.73.22a4.5,4.5,0,0,1,.74-1.35.7.7,0,0,1-.48-.86c.76-2.28-2.47-2.28-3.29-4h0l0,0c-.67.67-1.3,1.37-1.92,2.08C31.27,44,34.34,44,33.6,46.29Z"/><path class="cls-5" d="M42.21,104.89a1.94,1.94,0,0,1-.31.17,3.38,3.38,0,0,0-1.44,1c.51.31,1,.61,1.55.89h0c.22-.32.71-.87.5-1.2A1.81,1.81,0,0,1,42.21,104.89Z"/></g><path class="cls-9" d="M34.12,78.34c-.21-1.55-4.29-4.75-4.29-4.75l0,.1c1.35,3.82-3.06,2.19-1.17,8.48.87,2.9,2.31,5.47,5.45,6.74a2.08,2.08,0,0,1,1.36,1.7c.25,2.27.92,4.47.54,6.83a11.44,11.44,0,0,0,.39,5.87c.32.24.66.46,1,.7,0,0,2.58-6.3,2.17-9.31s-.37-7-3-9.31S34.34,79.9,34.12,78.34Z"/><g class="cls-1"><path class="cls-5" d="M62,32a42,42,0,0,1,41.95,40c0-.66.05-1.33.05-2a42,42,0,0,0-84,0c0,.67,0,1.34.05,2A42,42,0,0,1,62,32Z"/></g><g class="cls-1"><path class="cls-12" d="M62,108A42,42,0,0,1,20.05,68c0,.66-.05,1.33-.05,2a42,42,0,0,0,84,0c0-.67,0-1.34-.05-2A42,42,0,0,1,62,108Z"/></g><path class="cls-13" d="M62,28a42.08,42.08,0,0,0-9.66,1.13,14.89,14.89,0,0,0,2.8,1.75c1.26.47,2.28,3.25,1.38,4-1.15.91-.68,1.84-.47,2.88.13.67.2,1.39.91,1.54a1.31,1.31,0,0,0,1.48-.79c1.28-2.62,3.58-3.08,5.67-3.54,1.36-.29,2.07-1.38,2.8-2.22a16.71,16.71,0,0,0,3-4A42.19,42.19,0,0,0,62,28Z"/><path class="cls-5" d="M59.14,28.11c-.64,0-1.29.1-1.92.17l-.38,0c-.7.09-1.39.19-2.07.31l-.17,0q-1.14.2-2.26.47a14.88,14.88,0,0,0,2.8,1.75,2.84,2.84,0,0,1,1.32,1.49,41.14,41.14,0,0,1,10.8,0,14.59,14.59,0,0,0,2.63-3.59h0q-1-.18-1.92-.32h0q-1-.14-1.92-.23l-.41,0c-.52,0-1-.09-1.57-.11C63.37,28,62.69,28,62,28s-1.59,0-2.37.07Z"/><path class="cls-6" d="M57.24,40.3a2.41,2.41,0,0,1-.48,0A2.3,2.3,0,0,1,55.1,38.1l0-.18c0-.15-.06-.29-.1-.44a2.93,2.93,0,0,1,.93-3.43,3.73,3.73,0,0,0-.28-1.13,2.13,2.13,0,0,0-.84-1.11,15.62,15.62,0,0,1-3.07-1.91,1,1,0,0,1,.39-1.76,43.05,43.05,0,0,1,18-.39,1,1,0,0,1,.72,1.41,14.78,14.78,0,0,1-2.62,3.63l-.51.57-.33.38a5.41,5.41,0,0,1-3,2.16c-2.07.45-3.94.85-5,3A2.33,2.33,0,0,1,57.24,40.3ZM54.87,29.63a5.56,5.56,0,0,0,.62.32,4.51,4.51,0,0,1,2.32,3.41,2.31,2.31,0,0,1-.68,2.28c-.44.35-.44.51-.23,1.38,0,.17.08.34.12.52l0,.2a2.6,2.6,0,0,0,.16.61s.17,0,.32-.29C59,35,61.67,34.45,63.81,34a3.67,3.67,0,0,0,2-1.5l.36-.42.53-.59a17.85,17.85,0,0,0,1.63-2A40.87,40.87,0,0,0,54.87,29.63Z"/><path class="cls-6" d="M89.58,101.4H89.3c-1.87-.06-2.88-2.76-4.28-6.5-.55-1.46-1.11-3-1.73-4.3A9.29,9.29,0,0,1,83,87.36c0-3.93-.08-11.24-3.64-11.38l-.7-.1a19,19,0,0,0-4.57-.41,37.45,37.45,0,0,1-6.37.36,3.52,3.52,0,0,1-3-1.8,12.85,12.85,0,0,0-2-2.55c-1.2-1.28-1.84-2.2-.59-4.33.58-1,.67-1.38.41-1.83-1.53-2.61.72-4.33,2.52-5.72A11.33,11.33,0,0,0,68.3,56.5c.83-1.46,2.55-2.22,4.83-2.16a24.12,24.12,0,0,0,4.74-.51c2.48-.42,4.26-.73,5.28.22a2,2,0,0,1,.58,1.74A8.48,8.48,0,0,1,86.88,57c1.1.62,1.12.6,1.52.12a3.56,3.56,0,0,1,4.43-.82,6.69,6.69,0,0,0,5.19,0,1.17,1.17,0,0,0,.66-1,7.29,7.29,0,0,0-1-.05c-1.49,0-3.75-.06-5.26-2.36a.37.37,0,0,0-.45-.12c-1.08.3-2.17-.56-3.66-1.76a19.89,19.89,0,0,0-2.49-1.79,1.42,1.42,0,0,1-.19,1,1.81,1.81,0,0,1-2.38.46.92.92,0,0,0-1.17.22,1.11,1.11,0,0,1-1.18.27,1,1,0,0,1-.63-.85c0-.39-.16-1.05-.51-1.14-1-.24-3.51,1.68-4.13,2.65a4.39,4.39,0,0,1-5.48,1.5c-2.3-1.09-1.62-2.91-1.29-3.79a4.33,4.33,0,0,0,.2-.63c.21-1.17,1.68-3,3.09-3a5.47,5.47,0,0,0,1.46-.14,2.42,2.42,0,0,0-.24-.46A1.63,1.63,0,0,1,73.16,44a1.71,1.71,0,0,1,1.25-1l.22-.07a31,31,0,0,0,4.87-2,1.69,1.69,0,0,1-.36-.55,2.5,2.5,0,0,1,1-3.07l1.12-.75c1.18-.8,2.4-1.62,3.64-2.34a1,1,0,0,1,1.06,0A43,43,0,0,1,91.8,101a1,1,0,0,1-.53.27A10.39,10.39,0,0,1,89.58,101.4Zm-14.76-28a27,27,0,0,1,4.21.48l.47.08c5.42.21,5.49,8.76,5.52,13.36a18.29,18.29,0,0,0,.1,2.44c.64,1.36,1.22,2.91,1.78,4.41.74,2,1.85,4.94,2.51,5.21a7.81,7.81,0,0,0,1.23-.08,41,41,0,0,0,9.93-43.24A3.21,3.21,0,0,1,99.05,58c-1.89,1.14-5.18,1-7.07.08a1.66,1.66,0,0,0-2,.28c-1.48,1.79-3,1-4,.35a6.46,6.46,0,0,0-2.57-1,1.73,1.73,0,0,1-1.18-.63,2.08,2.08,0,0,1-.41-1.53.44.44,0,0,0,0-.16,13.31,13.31,0,0,0-3.52.36,27.06,27.06,0,0,1-5.14.54c-1.5,0-2.59.36-3,1.15a13,13,0,0,1-3.64,3.69c-2.09,1.6-2.57,2.17-2,3.12A3.59,3.59,0,0,1,64,68.16c-.58,1-.58,1,.32,1.95A14.77,14.77,0,0,1,66.52,73a1.57,1.57,0,0,0,1.25.81,35.38,35.38,0,0,0,6-.33A6.55,6.55,0,0,1,74.82,73.42ZM92.17,50.76a2.31,2.31,0,0,1,2,1c.93,1.41,2.3,1.44,3.63,1.46a5.22,5.22,0,0,1,1.78.22A41,41,0,0,0,85.36,36.3c-1,.61-2,1.29-3,1.95L81.25,39c-.32.21-.34.42-.28.6l.11.09a1.61,1.61,0,0,1,.7,1.54c-.18,1-1.19,1.74-6.41,3.57a2.19,2.19,0,0,1,.11,2C74.9,47.9,73.48,48,72.2,48a2.5,2.5,0,0,0-1.14,1.33,5.61,5.61,0,0,1-.3,1c-.35.95-.35,1,.28,1.28A2.39,2.39,0,0,0,74,50.8c.68-1,3.87-4.09,6.28-3.5A2.42,2.42,0,0,1,82,48.77a2.69,2.69,0,0,1,.85-.16,1.41,1.41,0,0,1-.11-.4A1.44,1.44,0,0,1,83,47.11a1.73,1.73,0,0,1,2.41-.27,1.59,1.59,0,0,0,.25.13,14.48,14.48,0,0,1,3.93,2.5,10.31,10.31,0,0,0,2,1.37A2.57,2.57,0,0,1,92.17,50.76ZM73.68,46Zm6.23-4.66h0ZM81,39.69h0Zm-.06-.11Z"/><path class="cls-6" d="M42,107.95a1,1,0,0,1-.48-.12c-.88-.48-1.78-1-2.75-1.64l-.22-.14c-1-.65-1.88-1.28-2.72-1.92a1,1,0,0,1-.33-.44,12.34,12.34,0,0,1-.44-6.38,14.17,14.17,0,0,0-.26-4.58c-.11-.66-.22-1.32-.29-2a1.09,1.09,0,0,0-.74-.89c-3.89-1.57-5.31-5-6-7.37-1.12-3.72-.25-5.14.81-6.39a1.58,1.58,0,0,0,.37-2c0-.13-.08-.26-.12-.39h0l-.17.07a2.55,2.55,0,0,1-2,0,4.17,4.17,0,0,1-2.18-2.18c-.79-1.89-2.54-2.35-4.57-2.71a1,1,0,0,1-.82-1c.06-1.13.17-2.31.35-3.6A42.89,42.89,0,0,1,22.09,54l.06-.15c.4-1,.86-2,1.36-3l.07-.14A43.45,43.45,0,0,1,27,45.07l.27-.38c.59-.81,1.23-1.62,1.88-2.4l.34-.39c.75-.87,1.45-1.62,2.12-2.29h0a1,1,0,0,1,.86-.28,1,1,0,0,1,.75.55,3.25,3.25,0,0,0,1.34,1.06c.8.46,2,1.16,2.15,2.5a9.41,9.41,0,0,1,1.63-2.08,7.9,7.9,0,0,0,1.36-1.71,2.93,2.93,0,0,1,2.36-1.69,3.73,3.73,0,0,1,3.15,1.63l0,.06.3-.18a1.89,1.89,0,0,1,1.75-.37,2.3,2.3,0,0,1,1.21,1.69c.06.22.11.45.15.67.14.7.23,1.05.68,1.35a1.44,1.44,0,0,1,.76,1.47c-.16,1-1.31,1.34-1.66,1.42-.85.22-1.64.35-2.41.48s-1.3.22-1.88.37a2,2,0,0,1,.61.88A1.29,1.29,0,0,1,45,49.25s-1,1.3-2,.91c-1.28-.46-2.07,0-3.37,1a10.91,10.91,0,0,1-1.66,1l-.54.26c-2.74,1.3-5.85,2.77-6,5.23-.13,2.67-3.28,5.55-5.14,6.93a11.33,11.33,0,0,0,1.27,1.16,8.62,8.62,0,0,1,2.49,2.78c.71.14,2.09.46,5,1.16l2.09.49a6.79,6.79,0,0,1,2,.94,16.36,16.36,0,0,0,4.64,2A4.31,4.31,0,0,1,46.78,75a4,4,0,0,1,.37,3.15l0,.17c.33.24.41.18.49.12a2.43,2.43,0,0,1,2.05-.56A2.17,2.17,0,0,1,51,79a4.94,4.94,0,0,1,4.06,1c.26.17.51.33.76.46a2.5,2.5,0,0,1,1.35,1.84,3.64,3.64,0,0,1-1.09,3A5.22,5.22,0,0,0,54.95,89c-.13,2-.3,4.38-3.87,5.24-.82.2-1,.64-1.23,1.86a6.49,6.49,0,0,1-.52,1.71c-.42.81-3.11,5.4-5.05,6.2-.88.36-1,.67-1.06.76a.68.68,0,0,0,.14.47c.53.85-.11,1.72-.41,2.14l-.11.15A1,1,0,0,1,42,107.95Zm-4.72-5.24c.73.55,1.5,1.09,2.3,1.62l.27.17c.49.32,1,.61,1.42.88a2.28,2.28,0,0,1,0-1.25,3.49,3.49,0,0,1,2.21-2c.91-.37,3.16-3.54,4-5.26a5,5,0,0,0,.34-1.2c.23-1.15.59-2.89,2.72-3.4s2.21-1.55,2.34-3.43A7.06,7.06,0,0,1,54.68,84a1.74,1.74,0,0,0,.55-1.29.5.5,0,0,0-.31-.38c-.3-.16-.6-.35-.91-.54-1-.65-1.69-1-2.58-.76a1.71,1.71,0,0,1-2.15-1,1,1,0,0,0-.15-.25s-.14.07-.35.23a2.29,2.29,0,0,1-3-.19,1.94,1.94,0,0,1-.61-2.21A2,2,0,0,0,45.08,76a2.46,2.46,0,0,0-1.62-.94,18,18,0,0,1-5.23-2.23,9.3,9.3,0,0,0-1.36-.7c-.15,0-.58-.12-2.25-.52s-4.77-1.14-5.28-1.2a1,1,0,0,1-.93-.69,5.9,5.9,0,0,0-2.1-2.44A7.37,7.37,0,0,1,24,64.73a1,1,0,0,1,.38-1.24c2-1.27,5-4.11,5-5.91.17-3.66,4-5.48,7.11-6.94l.54-.25a9.29,9.29,0,0,0,1.35-.87A6.94,6.94,0,0,1,41.52,48a2.86,2.86,0,0,1-.81-.21,1,1,0,0,1-.22-1.7,10.54,10.54,0,0,1,5.22-1.91c.59-.1,1.21-.21,1.83-.35a4.09,4.09,0,0,1-.84-2c0-.18-.07-.35-.12-.53l0-.12a2,2,0,0,1-2.94-.41,1.79,1.79,0,0,0-1.38-.84,1,1,0,0,0-.76.62,9.52,9.52,0,0,1-1.69,2.17,5.78,5.78,0,0,0-1.5,2.09A1.93,1.93,0,0,1,35,45.6,1.64,1.64,0,0,1,34.65,44c.16-.47.15-.61-1.08-1.31a8.07,8.07,0,0,1-1.32-.87c-.41.43-.83.9-1.27,1.42l-.33.38c-.62.74-1.23,1.51-1.79,2.28l-.25.36a41.16,41.16,0,0,0-3.2,5.29l-.11.22c-.48,1-.91,1.93-1.3,2.89l-1-.24.93.37a40.84,40.84,0,0,0-2.56,9.7c-.12.91-.21,1.76-.28,2.57,1.83.38,4.09,1.13,5.19,3.74a2.16,2.16,0,0,0,1.07,1.1.54.54,0,0,0,.46,0,2.35,2.35,0,0,1,1.94-.17,1.93,1.93,0,0,1,1,1.39c0,.09,0,.18.08.26a3.46,3.46,0,0,1-.73,4c-.68.79-1.32,1.53-.42,4.51,1,3.25,2.48,5.13,4.87,6.1a3.09,3.09,0,0,1,2,2.52c.07.63.17,1.25.28,1.88A15.89,15.89,0,0,1,37,97.6,10.67,10.67,0,0,0,37.29,102.71Zm8-63Z"/><path class="cls-6" d="M62,113a43,43,0,1,1,43-43A43,43,0,0,1,62,113Zm0-84a41,41,0,1,0,41,41A41,41,0,0,0,62,29Z"/></svg>